HIERARCHY
ROOT Hips
{
	OFFSET 0.00 0.00 0.00
	CHANNELS 6 Xposition Yposition Zposition Xrotation Yrotation Zrotation
	JOINT LeftUpLeg
	{
		OFFSET 3.66344 0.00000 0.00000
		CHANNELS 3 Xrotation Yrotation Zrotation
		JOINT LeftLeg
		{
			OFFSET 0.00000 -16.09471 0.00000
			CHANNELS 3 Xrotation Yrotation Zrotation
			JOINT LeftFoot
			{
				OFFSET 0.00000 -15.20357 0.00000
				CHANNELS 3 Xrotation Yrotation Zrotation
				JOINT LeftToeBase
				{
					OFFSET 0.00000 -1.51897 5.66885
					CHANNELS 3 Xrotation Yrotation Zrotation
					End Site
					{
						OFFSET 0.00000 0.00000 2.95273
					}
				}
			}
		}
	}
	JOINT RightUpLeg
	{
		OFFSET -3.66344 0.00000 0.00000
		CHANNELS 3 Xrotation Yrotation Zrotation
		JOINT RightLeg
		{
			OFFSET 0.00000 -16.09471 0.00000
			CHANNELS 3 Xrotation Yrotation Zrotation
			JOINT RightFoot
			{
				OFFSET 0.00000 -15.20357 0.00000
				CHANNELS 3 Xrotation Yrotation Zrotation
				JOINT RightToeBase
				{
					OFFSET 0.00000 -1.51897 5.66885
					CHANNELS 3 Xrotation Yrotation Zrotation
					End Site
					{
						OFFSET 0.00000 0.00000 2.95273
					}
				}
			}
		}
	}
	JOINT Spine
	{
		OFFSET 0.00000 0.03937 0.00000
		CHANNELS 3 Xrotation Yrotation Zrotation
		JOINT Spine1
		{
			OFFSET 0.00000 8.11179 0.00000
			CHANNELS 3 Xrotation Yrotation Zrotation
			JOINT Neck
			{
				OFFSET 0.00000 7.82546 0.00000
				CHANNELS 3 Xrotation Yrotation Zrotation
				JOINT Head
				{
					OFFSET 0.00000 5.66611 0.00000
					CHANNELS 3 Xrotation Yrotation Zrotation
					End Site
					{
						OFFSET 0.00000 4.52753 0.00000
					}
				}
			}
			JOINT LeftShoulder
			{
				OFFSET 0.00000 7.82546 0.00000
				CHANNELS 3 Xrotation Yrotation Zrotation
				JOINT LeftArm
				{
					OFFSET 6.38379 -0.00002 0.00000
					CHANNELS 3 Xrotation Yrotation Zrotation
					JOINT LeftForeArm
					{
						OFFSET 10.84793 -0.00004 0.00000
						CHANNELS 3 Xrotation Yrotation Zrotation
						JOINT LeftHand
						{
							OFFSET 7.69573 -0.00003 0.00000
							CHANNELS 3 Xrotation Yrotation Zrotation
							JOINT LeftHandThumb
							{
								OFFSET 0.00000 0.00000 0.00000
								CHANNELS 3 Xrotation Yrotation Zrotation
								End Site
								{
									OFFSET 0.00000 0.00000 3.93698
								}
							}
							JOINT L_Wrist_End
							{
								OFFSET 3.93698 -0.00001 0.00000
								CHANNELS 3 Xrotation Yrotation Zrotation
							}
						}
					}
				}
			}
			JOINT RightShoulder
			{
				OFFSET 0.00000 7.82546 0.00000
				CHANNELS 3 Xrotation Yrotation Zrotation
				JOINT RightArm
				{
					OFFSET -6.38379 -0.00002 0.00000
					CHANNELS 3 Xrotation Yrotation Zrotation
					JOINT RightForeArm
					{
						OFFSET -10.84793 -0.00004 0.00000
						CHANNELS 3 Xrotation Yrotation Zrotation
						JOINT RightHand
						{
							OFFSET -7.69573 -0.00003 0.00000
							CHANNELS 3 Xrotation Yrotation Zrotation
							JOINT RightHandThumb
							{
								OFFSET 0.00000 0.00000 0.00000
								CHANNELS 3 Xrotation Yrotation Zrotation
								End Site
								{
									OFFSET 0.00000 0.00000 3.93698
								}
							}
							JOINT R_Wrist_End
							{
								OFFSET -5.39367 -0.00002 0.00000
								CHANNELS 3 Xrotation Yrotation Zrotation
							}
						}
					}
				}
			}
		}
	}
}
MOTION
Frames: 9
Frame Time: 0.066664
 -22.0797 34.0314 -7.0338 -52.1699 -79.2822 -51.5958 -23.4079 -2.7290 -0.8657 89.8432 -0.0000 -0.0000 -27.4487 10.1513 5.1494 -7.0754 0.0000 0.0000 10.0350 -7.0577 5.5691 4.4662 -0.0000 -0.0000 -3.6949 6.4903 0.7399 -8.3774 0.0000 -0.0000 9.5968 6.6038 3.9043 -0.8063 1.5418 -5.6748 -4.3130 10.4760 0.3859 -20.9266 -4.8305 -0.8531 -0.9877 8.8101 9.3352 0.1380 -40.0693 -88.5459 0.0000 -7.0409 -0.0000 -4.5274 8.9922 -7.4256 -0.0000 0.0000 -0.0000 -0.0000 0.0000 -0.0000 -2.6275 -24.0615 -15.7692 -43.5193 -15.2550 64.8147 -179.9997 50.7437 179.9995 -61.3077 19.7092 11.8001 -0.0000 0.0000 -0.0000 -0.0000 0.0000 -0.0000
 -22.5002 33.9602 -7.0919 -66.0484 -81.1031 -66.7391 -4.2074 -3.4697 2.3092 38.6224 -0.0000 -0.0000 -22.0178 10.4556 4.5651 -7.2646 -0.0000 -0.0000 11.0024 -1.9093 6.9142 2.2478 0.0000 -0.0000 -2.0257 4.8372 -1.9785 -8.2991 0.0000 0.0000 8.2591 8.3170 4.2108 -1.5363 3.4083 -5.6311 -6.2621 11.2670 0.4221 -15.6314 -6.4555 1.1999 -1.2693 9.9652 10.2763 1.6073 -38.0915 -87.9734 -0.0000 -7.0572 -0.0000 -3.0830 9.4393 -6.5611 -0.0000 0.0000 -0.0000 -0.0000 0.0000 -0.0000 -2.2461 -24.5889 -15.3422 -30.8601 -4.2351 70.9661 -179.9997 58.1236 179.9994 -60.5986 19.6364 11.2639 -0.0000 0.0000 -0.0000 -0.0000 0.0000 -0.0000
 -22.7688 33.8011 -7.0052 -85.8689 -83.4836 -86.4256 9.7488 -5.2410 3.5000 4.8685 0.0000 0.0000 -8.6419 11.2846 -8.7158 -6.6742 -0.0000 -0.0000 8.1387 2.5021 6.0958 4.6909 -0.0000 -0.0000 -4.5042 4.5586 0.6299 -8.4457 0.0000 0.0000 5.9389 7.7466 2.7260 -1.8837 2.7951 -4.1951 -6.3557 14.2706 0.4469 -15.1954 -6.2989 3.2334 0.8911 10.8557 5.6920 4.8065 -31.7315 -83.6078 -0.0000 -6.8122 -0.0000 -8.5018 7.0091 -5.9403 -0.0000 0.0000 -0.0000 -0.0000 0.0000 -0.0000 1.5114 -25.4425 -9.1157 -21.7088 25.2704 59.7671 -179.9990 78.1135 179.9988 -62.9140 20.4936 12.3498 -0.0000 0.0000 -0.0000 -0.0000 0.0000 -0.0000
 -22.6613 33.9679 -7.2309 -46.7887 -81.4779 -46.1944 4.6446 6.7602 5.1689 12.1167 -0.0000 -0.0000 -13.9216 -1.7676 -12.5328 -7.8777 -0.0000 -0.0000 7.9576 -0.6477 6.2038 4.7897 0.0000 0.0000 -3.6949 1.3122 -3.0715 -8.0592 -0.0000 -0.0000 5.8852 5.4452 2.9814 -1.3098 0.7843 -7.7382 -8.4061 13.2536 -0.0303 -12.6084 -7.7329 6.9477 -1.7317 9.1498 10.5163 4.3837 -37.5692 -86.3086 0.0000 -6.0249 -0.0000 -2.6612 9.8351 -5.6973 -0.0000 0.0000 -0.0000 -0.0000 0.0000 -0.0000 0.7202 -26.3523 -11.4577 -6.1535 37.3717 49.7973 -179.9969 86.0702 179.9967 -70.4812 21.3984 16.2279 -0.0000 0.0000 -0.0000 -0.0000 0.0000 -0.0000
 -22.1182 33.6709 -7.3125 -39.5060 -77.1010 -41.8676 -9.5617 0.8963 8.2777 49.8373 0.0000 -0.0000 -22.6970 6.4953 -4.3523 -7.2154 0.0000 0.0000 9.3756 -5.1957 9.2640 5.7187 0.0000 -0.0000 -5.1826 2.6929 1.0199 -8.3093 0.0000 0.0000 9.0892 4.5075 4.6598 -0.2958 -0.3567 -3.6508 -5.3761 10.3680 -0.5042 -22.1957 -3.6518 0.6187 -1.0081 8.1299 9.0535 1.5582 -39.9319 -87.1915 0.0000 -7.7755 0.0000 -5.3629 8.0938 -8.1564 -0.0000 0.0000 -0.0000 -0.0000 0.0000 -0.0000 -0.6697 -26.2742 -14.0739 -0.9311 35.7098 34.3211 -179.9987 80.6595 179.9985 -73.4934 21.3995 17.6807 -0.0000 0.0000 -0.0000 -0.0000 0.0000 -0.0000
 -21.7507 33.6500 -7.2211 -37.6411 -77.1881 -40.5789 -21.1780 -1.8119 6.6413 80.3595 0.0000 0.0000 -22.5539 5.5135 -4.8245 -7.3019 -0.0000 0.0000 7.4260 -6.5115 9.3894 8.1731 -0.0000 -0.0000 -6.2515 3.0641 2.0240 -8.3446 0.0000 0.0000 9.9869 4.4832 5.5256 -0.2125 -0.1633 -3.3300 -5.4247 10.0888 -0.7444 -24.5650 -2.9799 -0.0370 -0.7705 8.4596 8.1502 0.9238 -37.1510 -87.1752 -0.0000 -8.0476 0.0000 -8.6395 6.7788 -5.9589 -0.0000 0.0000 -0.0000 -0.0000 0.0000 -0.0000 -2.0821 -25.6226 -15.1522 -16.2863 26.1797 38.9602 -179.9992 75.6322 179.9989 -73.5040 21.7772 16.8350 -0.0000 0.0000 -0.0000 -0.0000 0.0000 -0.0000
 -21.4767 33.7303 -7.1352 -40.0771 -79.7100 -42.3691 -27.3383 0.1066 5.0349 95.7910 0.0000 -0.0000 -23.4895 3.6220 -3.5271 -7.6710 0.0000 -0.0000 5.3723 -8.7233 7.9386 9.2736 0.0000 -0.0000 -6.5332 7.0279 3.7280 -8.6135 0.0000 -0.0000 10.8086 5.7561 4.9048 -1.3218 0.7184 -3.9662 -6.5080 10.6867 -0.5623 -24.9922 -3.5887 0.0845 -0.4586 8.6899 8.2880 1.5924 -37.2817 -86.9060 0.0000 -7.7975 0.0000 -7.1306 7.6512 -6.5740 -0.0000 -0.0000 0.0000 -0.0000 -0.0000 0.0000 -2.6209 -24.5450 -14.3809 -38.4911 6.4092 53.0405 -179.9996 63.6124 179.9993 -66.3740 21.1303 13.7428 -0.0000 0.0000 -0.0000 -0.0000 0.0000 -0.0000
 -21.4846 33.8492 -7.0906 -45.5887 -82.3293 -48.0573 -25.9670 3.2568 4.9371 91.1908 -0.0000 -0.0000 -25.2090 5.2011 -0.3205 -7.5264 0.0000 -0.0000 6.5035 -9.6937 7.8297 5.0467 0.0000 0.0000 -5.2739 10.5061 6.7516 -8.6064 0.0000 0.0000 9.6797 6.8354 4.2021 -1.1529 1.7748 -3.1815 -5.7797 10.8937 -0.6704 -26.5554 -3.5949 -0.1372 0.1238 8.3463 8.5283 3.3279 -40.4850 -86.6295 -0.0000 -8.2117 -0.0000 -6.1902 8.0140 -7.1305 -0.0000 0.0000 -0.0000 -0.0000 0.0000 -0.0000 -1.4087 -23.0079 -10.6001 -52.6501 -12.0734 63.0462 -179.9998 49.1934 179.9995 -53.9440 17.3451 10.2342 -0.0000 0.0000 -0.0000 -0.0000 0.0000 -0.0000
 -21.7918 33.9029 -6.9196 -71.3240 -84.6534 -74.3749 -15.6523 6.8622 4.6204 63.3267 0.0000 -0.0000 -27.1388 5.3209 0.2306 -7.3487 0.0000 -0.0000 9.3154 -9.1746 7.7508 -0.4206 0.0000 0.0000 -4.5055 14.1408 12.7357 -8.4482 -0.0000 0.0000 8.4730 8.3502 4.1482 -2.3116 3.3581 -2.0950 -5.1130 11.2193 -0.8192 -23.6691 -2.8490 -0.0896 0.1455 8.4481 9.4734 9.4102 -54.0251 -83.9204 -0.0000 -12.5018 0.0000 -4.3981 9.0870 -9.4610 -0.0000 0.0000 -0.0000 -0.0000 0.0000 -0.0000 -1.8445 -21.9525 -11.0425 -43.5150 -14.9104 75.0060 -179.9997 50.3108 179.9995 -49.0812 16.1893 8.2981 -0.0000 0.0000 -0.0000 -0.0000 0.0000 -0.0000
